{
  "accessors": [
    {
      "bufferView": 0,
      "componentType": 5125,
      "count": 7614,
      "max": [
        1369
      ],
      "min": [
        0
      ],
      "type": "SCALAR"
    },
    {
      "bufferView": 1,
      "componentType": 5126,
      "count": 1370,
      "max": [
        7.254019737243652,
        59.248111724853516,
        -0.428280234336853
      ],
      "min": [
        -7.286163806915283,
        33.565670013427734,
        -5.977195739746094
      ],
      "type": "VEC3"
    },
    {
      "bufferView": 2,
      "componentType": 5126,
      "count": 1370,
      "max": [
        0.9995166063308716,
        0.9185260534286499,
        0.5473042726516724
      ],
      "min": [
        -0.9989412426948547,
        -0.9625930786132812,
        -0.999991774559021
      ],
      "type": "VEC3"
    },
    {
      "bufferView": 3,
      "componentType": 5126,
      "count": 1370,
      "max": [
        0.37357214093208313,
        0.5278576612472534
      ],
      "min": [
        0.005000076722353697,
        0.026845157146453857
      ],
      "type": "VEC2"
    },
    {
      "bufferView": 4,
      "componentType": 5125,
      "count": 7377,
      "max": [
        1332
      ],
      "min": [
        0
      ],
      "type": "SCALAR"
    },
    {
      "bufferView": 5,
      "componentType": 5126,
      "count": 1333,
      "max": [
        7.254019737243652,
        59.25284957885742,
        3.8253564834594727
      ],
      "min": [
        -7.286163806915283,
        34.618141174316406,
        -2.9739456176757812
      ],
      "type": "VEC3"
    },
    {
      "bufferView": 6,
      "componentType": 5126,
      "count": 1333,
      "max": [
        0.9998154640197754,
        0.9697985053062439,
        0.9999872446060181
      ],
      "min": [
        -0.9985093474388123,
        -0.7701398134231567,
        -0.6387377977371216
      ],
      "type": "VEC3"
    },
    {
      "bufferView": 7,
      "componentType": 5126,
      "count": 1333,
      "max": [
        0.7385560870170593,
        0.7314330339431763
      ],
      "min": [
        0.3699837923049927,
        0.23042207956314087
      ],
      "type": "VEC2"
    },
    {
      "bufferView": 8,
      "componentType": 5125,
      "count": 4800,
      "max": [
        864
      ],
      "min": [
        0
      ],
      "type": "SCALAR"
    },
    {
      "bufferView": 9,
      "componentType": 5126,
      "count": 865,
      "max": [
        -6.197226047515869,
        57.86141586303711,
        0.8055897951126099
      ],
      "min": [
        -22.040620803833008,
        38.20248794555664,
        -4.676451206207275
      ],
      "type": "VEC3"
    },
    {
      "bufferView": 10,
      "componentType": 5126,
      "count": 865,
      "max": [
        0.8951828479766846,
        0.8300579786300659,
        0.9993757009506226
      ],
      "min": [
        -0.8744542002677917,
        -0.9684087038040161,
        -0.9999224543571472
      ],
      "type": "VEC3"
    },
    {
      "bufferView": 11,
      "componentType": 5126,
      "count": 865,
      "max": [
        0.9950000643730164,
        0.4839872717857361
      ],
      "min": [
        0.6971880197525024,
        0.026845157146453857
      ],
      "type": "VEC2"
    },
    {
      "bufferView": 12,
      "componentType": 5125,
      "count": 4755,
      "max": [
        859
      ],
      "min": [
        0
      ],
      "type": "SCALAR"
    },
    {
      "bufferView": 13,
      "componentType": 5126,
      "count": 860,
      "max": [
        21.99560546875,
        57.870933532714844,
        0.7331242561340332
      ],
      "min": [
        6.124818801879883,
        38.29581832885742,
        -4.803943634033203
      ],
      "type": "VEC3"
    },
    {
      "bufferView": 14,
      "componentType": 5126,
      "count": 860,
      "max": [
        0.9021491408348083,
        0.864067792892456,
        0.9998199343681335
      ],
      "min": [
        -0.8465717434883118,
        -0.8880761861801147,
        -0.9994439482688904
      ],
      "type": "VEC3"
    },
    {
      "bufferView": 15,
      "componentType": 5126,
      "count": 860,
      "max": [
        0.3028118908405304,
        0.9950000047683716
      ],
      "min": [
        0.0050000459887087345,
        0.5378576517105103
      ],
      "type": "VEC2"
    },
    {
      "bufferView": 16,
      "componentType": 5125,
      "count": 510,
      "max": [
        147
      ],
      "min": [
        0
      ],
      "type": "SCALAR"
    },
    {
      "bufferView": 17,
      "componentType": 5126,
      "count": 148,
      "max": [
        3.4656410217285156,
        59.505401611328125,
        1.3027238845825195
      ],
      "min": [
        -3.546221971511841,
        56.44208526611328,
        -4.185253143310547
      ],
      "type": "VEC3"
    },
    {
      "bufferView": 18,
      "componentType": 5126,
      "count": 148,
      "max": [
        0.8460208773612976,
        0.9292900562286377,
        0.9930416345596313
      ],
      "min": [
        -0.9767370820045471,
        -0.8154057860374451,
        -0.9811004400253296
      ],
      "type": "VEC3"
    },
    {
      "bufferView": 19,
      "componentType": 5126,
      "count": 148,
      "max": [
        0.6991105675697327,
        0.12246596813201904
      ],
      "min": [
        0.3330945670604706,
        0.10336452722549438
      ],
      "type": "VEC2"
    }
  ],
  "asset": {
    "generator": "CLO Standalone OnlineAuth 2025.0.128",
    "version": "2.0"
  },
  "bufferViews": [
    {
      "buffer": 0,
      "byteLength": 30456
    },
    {
      "buffer": 0,
      "byteLength": 16440,
      "byteOffset": 30456
    },
    {
      "buffer": 0,
      "byteLength": 16440,
      "byteOffset": 46896
    },
    {
      "buffer": 0,
      "byteLength": 10960,
      "byteOffset": 63336
    },
    {
      "buffer": 0,
      "byteLength": 29508,
      "byteOffset": 74296
    },
    {
      "buffer": 0,
      "byteLength": 15996,
      "byteOffset": 103804
    },
    {
      "buffer": 0,
      "byteLength": 15996,
      "byteOffset": 119800
    },
    {
      "buffer": 0,
      "byteLength": 10664,
      "byteOffset": 135796
    },
    {
      "buffer": 0,
      "byteLength": 19200,
      "byteOffset": 146460
    },
    {
      "buffer": 0,
      "byteLength": 10380,
      "byteOffset": 165660
    },
    {
      "buffer": 0,
      "byteLength": 10380,
      "byteOffset": 176040
    },
    {
      "buffer": 0,
      "byteLength": 6920,
      "byteOffset": 186420
    },
    {
      "buffer": 0,
      "byteLength": 19020,
      "byteOffset": 193340
    },
    {
      "buffer": 0,
      "byteLength": 10320,
      "byteOffset": 212360
    },
    {
      "buffer": 0,
      "byteLength": 10320,
      "byteOffset": 222680
    },
    {
      "buffer": 0,
      "byteLength": 6880,
      "byteOffset": 233000
    },
    {
      "buffer": 0,
      "byteLength": 2040,
      "byteOffset": 239880
    },
    {
      "buffer": 0,
      "byteLength": 1776,
      "byteOffset": 241920
    },
    {
      "buffer": 0,
      "byteLength": 1776,
      "byteOffset": 243696
    },
    {
      "buffer": 0,
      "byteLength": 1184,
      "byteOffset": 245472
    }
  ],
  "buffers": [
    {
      "byteLength": 246656,
      "uri": "data:application/octet-stream;base64,"
    }
  ],
  "extensionsUsed": [
    "KHR_materials_specular"
  ],
  "extras": {
    "MetaData": {
      "MeshList": [
        {
          "MeshEndIndex": 1370,
          "MeshIndex": 0,
          "MeshName": "Pattern_45930",
          "MeshStartIndex": 0,
          "PhysicalPropertyName": "Default_0"
        },
        {
          "MeshEndIndex": 1333,
          "MeshIndex": 1,
          "MeshName": "Pattern_46832",
          "MeshStartIndex": 0,
          "PhysicalPropertyName": "Default_0"
        },
        {
          "MeshEndIndex": 865,
          "MeshIndex": 2,
          "MeshName": "Pattern_47851",
          "MeshStartIndex": 0,
          "PhysicalPropertyName": "Default_0"
        },
        {
          "MeshEndIndex": 860,
          "MeshIndex": 3,
          "MeshName": "Pattern_48330",
          "MeshStartIndex": 0,
          "PhysicalPropertyName": "Default_0"
        },
        {
          "InternalShapeList": [
            {
              "FoldAngle": -0.9986295104026794,
              "Hole": "false",
              "InnerBKScale": 6.0,
              "Line": {
                "MeshPointIndex": "63/125/126/127/128/129/130/131/132/133/134/135/136/137/138/139/140/141/142/143/144/145/146/147/148/1"
              },
              "RenderFold": "false"
            }
          ],
          "MeshEndIndex": 148,
          "MeshIndex": 4,
          "MeshName": "Pattern_48802",
          "MeshStartIndex": 0,
          "PhysicalPropertyName": "Default_0"
        }
      ],
      "PBRMaterial": [
        {
          "Name": "MAT_NECKBAND_FRONT_24010",
          "Opacity": 100,
          "globalColor": {
            "B": 117,
            "G": 100,
            "Intensity": 1,
            "Name": "EC6475",
            "R": 236
          }
        },
        {
          "Name": "MAT_SLEEVE_L_FRONT_24005",
          "Opacity": 100,
          "globalColor": {
            "B": 117,
            "G": 100,
            "Intensity": 1,
            "Name": "EC6475",
            "R": 236
          }
        },
        {
          "Name": "MAT_FRONT_FRONT_23995",
          "Opacity": 100,
          "globalColor": {
            "B": 117,
            "G": 100,
            "Intensity": 1,
            "Name": "EC6475",
            "R": 236
          }
        },
        {
          "Name": "MAT_SLEEVE_R_FRONT_24000",
          "Opacity": 100,
          "globalColor": {
            "B": 117,
            "G": 100,
            "Intensity": 1,
            "Name": "EC6475",
            "R": 236
          }
        },
        {
          "Name": "MAT_BACK_FRONT_23990",
          "Opacity": 100,
          "globalColor": {
            "B": 117,
            "G": 100,
            "Intensity": 1,
            "Name": "EC6475",
            "R": 236
          }
        }
      ],
      "PhysicalPropertyList": [
        {
          "Bending-Warp": 1884.9556884765625,
          "Bending-Weft": 314.1592712402344,
          "BucklingRatio-Warp": 0.0,
          "BucklingRatio-Weft": 0.0,
          "BucklingStiffness-Warp": 0.0,
          "BucklingStiffness-Weft": 0.0,
          "Density": 0.0003000000142492354,
          "FrictionCoefficient": 0.029999999329447746,
          "InternalDamping": 9.999999747378752e-05,
          "PhysicalPropertyName": "Default_0",
          "Shear": 10000.0,
          "Stretch-Warp": 100000.0,
          "Stretch-Weft": 100000.0
        },
        {
          "Bending-Warp": 1884.9556884765625,
          "Bending-Weft": 314.1592712402344,
          "BucklingRatio-Warp": 0.0,
          "BucklingRatio-Weft": 0.0,
          "BucklingStiffness-Warp": 0.0,
          "BucklingStiffness-Weft": 0.0,
          "Density": 0.0003000000142492354,
          "FrictionCoefficient": 0.029999999329447746,
          "InternalDamping": 9.999999747378752e-05,
          "PhysicalPropertyName": "Default_0",
          "Shear": 10000.0,
          "Stretch-Warp": 100000.0,
          "Stretch-Weft": 100000.0
        },
        {
          "Bending-Warp": 1884.9556884765625,
          "Bending-Weft": 314.1592712402344,
          "BucklingRatio-Warp": 0.0,
          "BucklingRatio-Weft": 0.0,
          "BucklingStiffness-Warp": 0.0,
          "BucklingStiffness-Weft": 0.0,
          "Density": 0.0003000000142492354,
          "FrictionCoefficient": 0.029999999329447746,
          "InternalDamping": 9.999999747378752e-05,
          "PhysicalPropertyName": "Default_0",
          "Shear": 10000.0,
          "Stretch-Warp": 100000.0,
          "Stretch-Weft": 100000.0
        },
        {
          "Bending-Warp": 1884.9556884765625,
          "Bending-Weft": 314.1592712402344,
          "BucklingRatio-Warp": 0.0,
          "BucklingRatio-Weft": 0.0,
          "BucklingStiffness-Warp": 0.0,
          "BucklingStiffness-Weft": 0.0,
          "Density": 0.0003000000142492354,
          "FrictionCoefficient": 0.029999999329447746,
          "InternalDamping": 9.999999747378752e-05,
          "PhysicalPropertyName": "Default_0",
          "Shear": 10000.0,
          "Stretch-Warp": 100000.0,
          "Stretch-Weft": 100000.0
        },
        {
          "Bending-Warp": 1884.9556884765625,
          "Bending-Weft": 314.1592712402344,
          "BucklingRatio-Warp": 0.0,
          "BucklingRatio-Weft": 0.0,
          "BucklingStiffness-Warp": 0.0,
          "BucklingStiffness-Weft": 0.0,
          "Density": 0.0003000000142492354,
          "FrictionCoefficient": 0.029999999329447746,
          "InternalDamping": 9.999999747378752e-05,
          "PhysicalPropertyName": "Default_0",
          "Shear": 10000.0,
          "Stretch-Warp": 100000.0,
          "Stretch-Weft": 100000.0
        }
      ],
      "SeamLinePairList": [
        {
          "BKScale": 1.0,
          "FoldAngle": 0.0,
          "SeamLine": [
            {
              "MeshIndex": 3,
              "MeshPointIndex": "7/8/9/10/11/12/13/14/15/16/17/18/19/20/21/22/23/24/25/26/27/28/29/30/31"
            },
            {
              "MeshIndex": 3,
              "MeshPointIndex": "128/127/126/125/124/123/122/121/120/119/118/117/116/115/114/113/112/111/110/109/108/107/106/105/104"
            }
          ]
        },
        {
          "BKScale": 1.0,
          "FoldAngle": 0.0,
          "SeamLine": [
            {
              "MeshIndex": 2,
              "MeshPointIndex": "7/8/9/10/11/12/13/14/15/16/17/18/19/20/21/22/23/24/25/26/27/28/29/30/31"
            },
            {
              "MeshIndex": 2,
              "MeshPointIndex": "123/122/121/120/119/118/117/116/115/114/113/112/111/110/109/108/107/106/105/104/103/102/101/100/99"
            }
          ]
        },
        {
          "BKScale": 1.0,
          "FoldAngle": 0.0,
          "SeamLine": [
            {
              "MeshIndex": 1,
              "MeshPointIndex": "161/162/163/164/165/166/167/168/169/170/171/172/173/174/175/176/177/178/179/180/181/182/183/184/185/186/187/188/189/190/191/192/193"
            },
            {
              "MeshIndex": 0,
              "MeshPointIndex": "46/45/44/43/42/41/40/39/38/37/36/35/34/33/32/31/30/29/28/27/26/25/24/23/22/21/20/19/18/17/16/15/14"
            }
          ]
        },
        {
          "BKScale": 1.0,
          "FoldAngle": 0.0,
          "SeamLine": [
            {
              "MeshIndex": 1,
              "MeshPointIndex": "14/15/16/17/18/19/20/21/22/23/24/25/26/27/28/29/30/31/32/33/34/35/36/37/38/39/40/41/42/43/44/45/46"
            },
            {
              "MeshIndex": 0,
              "MeshPointIndex": "188/187/186/185/184/183/182/181/180/179/178/177/176/175/174/173/172/171/170/169/168/167/166/165/164/163/162/161/160/159/158/157/156"
            }
          ]
        },
        {
          "BKScale": 1.0,
          "FoldAngle": 0.0,
          "SeamLine": [
            {
              "MeshIndex": 1,
              "MeshPointIndex": "120/121/122/123/124/125/126"
            },
            {
              "MeshIndex": 0,
              "MeshPointIndex": "90/89/88/87/86/85/84"
            }
          ]
        },
        {
          "BKScale": 1.0,
          "FoldAngle": 0.0,
          "SeamLine": [
            {
              "MeshIndex": 1,
              "MeshPointIndex": "77/78/79/80/81/82/83"
            },
            {
              "MeshIndex": 0,
              "MeshPointIndex": "119/118/117/116/115/114/113"
            }
          ]
        },
        {
          "BKScale": 1.0,
          "FoldAngle": 0.0,
          "SeamLine": [
            {
              "MeshIndex": 3,
              "MeshPointIndex": "31/32/33/34/35/36/37/38/39/40/41/42/43/44/45/46/47/48/49/50/51/52/53/54/55/56/57/58/59/60/61/62/63/64/65/66"
            },
            {
              "MeshIndex": 1,
              "MeshPointIndex": "161/160/159/158/157/156/155/154/153/152/151/150/149/148/147/146/145/144/143/142/141/140/139/138/137/136/135/134/133/132/131/130/129/128/127/126"
            }
          ]
        },
        {
          "BKScale": 1.0,
          "FoldAngle": 0.0,
          "SeamLine": [
            {
              "MeshIndex": 3,
              "MeshPointIndex": "66/67/68/69/70/71/72/73/74/75/76/77/78/79/80/81/82/83/84/85/86/87/88/89/90/91/92/93/94/95/96/97/98/99/100/101/102/103/104"
            },
            {
              "MeshIndex": 0,
              "MeshPointIndex": "84/83/82/81/80/79/78/77/76/75/74/73/72/71/70/69/68/67/66/65/64/63/62/61/60/59/58/57/56/55/54/53/52/51/50/49/48/47/46"
            }
          ]
        },
        {
          "BKScale": 1.0,
          "FoldAngle": 0.0,
          "SeamLine": [
            {
              "MeshIndex": 2,
              "MeshPointIndex": "99/98/97/96/95/94/93/92/91/90/89/88/87/86/85/84/83/82/81/80/79/78/77/76/75/74/73/72/71/70/69/68"
            },
            {
              "MeshIndex": 1,
              "MeshPointIndex": "46/47/48/49/50/51/52/53/54/55/56/57/58/59/60/61/62/63/64/65/66/67/68/69/70/71/72/73/74/75/76/77"
            }
          ]
        },
        {
          "BKScale": 1.0,
          "FoldAngle": 0.0,
          "SeamLine": [
            {
              "MeshIndex": 2,
              "MeshPointIndex": "68/67/66/65/64/63/62/61/60/59/58/57/56/55/54/53/52/51/50/49/48/47/46/45/44/43/42/41/40/39/38/37/36/35/34/33/32/31"
            },
            {
              "MeshIndex": 0,
              "MeshPointIndex": "119/120/121/122/123/124/125/126/127/128/129/130/131/132/133/134/135/136/137/138/139/140/141/142/143/144/145/146/147/148/149/150/151/152/153/154/155/156"
            }
          ]
        },
        {
          "BKScale": 1.0,
          "FoldAngle": 0.0,
          "SeamLine": [
            {
              "MeshIndex": 4,
              "MeshPointIndex": "62/63/64"
            },
            {
              "MeshIndex": 4,
              "MeshPointIndex": "2/1/124"
            }
          ]
        },
        {
          "BKScale": 1.0,
          "FoldAngle": 0.0,
          "SeamLine": [
            {
              "MeshIndex": 1,
              "MeshPointIndex": "83/84/85/86/87/88/89/90/91/92/93/94/95/96/97/98/99/100/101/102/103/104/105/106/107/108/109/110/111/112/113/114/115/116/117/118/119/120"
            },
            {
              "MeshIndex": 4,
              "MeshPointIndex": "62/61/60/59/58/57/56/55/54/53/52/51/50/49/48/47/46/45/44/43/42/41/40/39/38/37/36/35/34/33/32/31/30/29/28/27/26/25"
            }
          ]
        },
        {
          "BKScale": 1.0,
          "FoldAngle": 0.0,
          "SeamLine": [
            {
              "MeshIndex": 0,
              "MeshPointIndex": "90/91/92/93/94/95/96/97/98/99/100/101/102/103/104/105/106/107/108/109/110/111/112/113"
            },
            {
              "MeshIndex": 4,
              "MeshPointIndex": "25/24/23/22/21/20/19/18/17/16/15/14/13/12/11/10/9/8/7/6/5/4/3/2"
            }
          ]
        },
        {
          "BKScale": 1.0,
          "FoldAngle": 0.0,
          "SeamLine": [
            {
              "MeshIndex": 4,
              "MeshPointIndex": "62/61/60/59/58/57/56/55/54/53/52/51/50/49/48/47/46/45/44/43/42/41/40/39/38/37/36/35/34/33/32/31/30/29/28/27/26/25/24/23/22/21/20/19/18/17/16/15/14/13/12/11/10/9/8/7/6/5/4/3/2"
            },
            {
              "MeshIndex": 4,
              "MeshPointIndex": "64/65/66/67/68/69/70/71/72/73/74/75/76/77/78/79/80/81/82/83/84/85/86/87/88/89/90/91/92/93/94/95/96/97/98/99/100/101/102/103/104/105/106/107/108/109/110/111/112/113/114/115/116/117/118/119/120/121/122/123/124"
            }
          ]
        }
      ]
    }
  },
  "images": [
    {
      "uri": "textures/atlas.png"
    }
  ],
  "materials": [
    {
      "doubleSided": true,
      "extensions": {
        "KHR_materials_specular": {
          "specularFactor": 0.15000000596046448
        }
      },
      "name": "MAT_BACK_23750",
      "pbrMetallicRoughness": {
        "baseColorFactor": [
          1.0,
          1.0,
          1.0,
          1.0
        ],
        "metallicFactor": 0.0,
        "roughnessFactor": 1.0,
        "baseColorTexture": {
          "index": 0
        }
      },
      "alphaMode": "OPAQUE"
    },
    {
      "doubleSided": true,
      "extensions": {
        "KHR_materials_specular": {
          "specularFactor": 0.15000000596046448
        }
      },
      "name": "MAT_FRONT_23753",
      "pbrMetallicRoughness": {
        "baseColorFactor": [
          1.0,
          1.0,
          1.0,
          1.0
        ],
        "metallicFactor": 0.0,
        "roughnessFactor": 1.0,
        "baseColorTexture": {
          "index": 0
        }
      },
      "alphaMode": "OPAQUE"
    },
    {
      "doubleSided": true,
      "extensions": {
        "KHR_materials_specular": {
          "specularFactor": 0.15000000596046448
        }
      },
      "name": "MAT_SLEEVE_R_23756",
      "pbrMetallicRoughness": {
        "baseColorFactor": [
          1.0,
          1.0,
          1.0,
          1.0
        ],
        "metallicFactor": 0.0,
        "roughnessFactor": 1.0,
        "baseColorTexture": {
          "index": 0
        }
      },
      "alphaMode": "OPAQUE"
    },
    {
      "doubleSided": true,
      "extensions": {
        "KHR_materials_specular": {
          "specularFactor": 0.15000000596046448
        }
      },
      "name": "MAT_SLEEVE_L_23759",
      "pbrMetallicRoughness": {
        "baseColorFactor": [
          1.0,
          1.0,
          1.0,
          1.0
        ],
        "metallicFactor": 0.0,
        "roughnessFactor": 1.0,
        "baseColorTexture": {
          "index": 0
        }
      },
      "alphaMode": "OPAQUE"
    },
    {
      "doubleSided": true,
      "extensions": {
        "KHR_materials_specular": {
          "specularFactor": 0.15000000596046448
        }
      },
      "name": "MAT_NECKBAND_23762",
      "pbrMetallicRoughness": {
        "baseColorFactor": [
          1.0,
          1.0,
          1.0,
          1.0
        ],
        "metallicFactor": 0.0,
        "roughnessFactor": 1.0,
        "baseColorTexture": {
          "index": 0
        }
      },
      "alphaMode": "OPAQUE"
    }
  ],
  "meshes": [
    {
      "name": "Cloth_mesh",
      "primitives": [
        {
          "attributes": {
            "NORMAL": 2,
            "POSITION": 1,
            "TEXCOORD_0": 3
          },
          "indices": 0,
          "material": 0
        },
        {
          "attributes": {
            "NORMAL": 6,
            "POSITION": 5,
            "TEXCOORD_0": 7
          },
          "indices": 4,
          "material": 1
        },
        {
          "attributes": {
            "NORMAL": 10,
            "POSITION": 9,
            "TEXCOORD_0": 11
          },
          "indices": 8,
          "material": 2
        },
        {
          "attributes": {
            "NORMAL": 14,
            "POSITION": 13,
            "TEXCOORD_0": 15
          },
          "indices": 12,
          "material": 3
        },
        {
          "attributes": {
            "NORMAL": 18,
            "POSITION": 17,
            "TEXCOORD_0": 19
          },
          "indices": 16,
          "material": 4
        }
      ]
    }
  ],
  "nodes": [
    {
      "children": [
        1
      ],
      "name": "uv_map_Scene_Node"
    },
    {
      "mesh": 0,
      "name": "Cloth"
    }
  ],
  "samplers": [
    {
      "magFilter": 9729,
      "minFilter": 9987
    }
  ],
  "scene": 0,
  "scenes": [
    {
      "nodes": [
        0
      ]
    }
  ],
  "textures": [
    {
      "source": 0
    }
  ]
}